Patient4_TMGait_0pt4_02_left_34_EMG.mot
version=1
nRows=16
nColumns=33
inDegrees=no
endheader
time	1LAddLong	2LGlutMax	3LGlutMed	4LIliopsoas	5LSemiMemb	6LBicFemLong	7LRecFem	8LVastMed	9LVastLat	10LGasMed	11LTibAnt	12lTibPost	13LPeroneusLong	14LSol	15LExtDigLong	16LFlexDigLong	17RAddLong	18RGlutMax	19RGlutMed	20RIliopsoas	21RSemiMemb	22RBicFemLong	23RRecFem	24RVastMed	25RVastLat	26RGasMed	27RTibAnt	28RTibPost	29RPeroneusLong	30RSol	31RExtDigLong	32RFlexDigLong
46.865	0.032501	-0.069733	-0.078278	0.012817	0.036774	0.005798	-0.077057	0.010986	0.056305	-0.042419	0.022888	-0.005035	-0.037079	-0.079193	0.038147	-0.005798	0.005341	-0.090942	0.10452	0.21652	0.023041	0.014954	0.40955	-0.041656	-0.14389	-0.01297	0.47699	-0.001373	-0.11719	0.14664	-0.002747	-0.009766
46.866	0.023804	-0.001678	-0.018311	-0.009155	0.027618	0.035553	-0.05722	0.013123	0.05722	-0.032654	0.050964	-0.00412	-0.045624	-0.080109	0.037689	-0.005188	-0.005493	-0.065613	0.046844	0.039368	0.045166	0.011292	-0.14969	-0.16968	-0.074615	-0.011597	0.23575	-0.010834	-0.30273	0.30228	-0.001678	-0.006561
46.867	0.02182	-0.025635	-0.024719	0.006104	0.028992	0.032806	-0.064087	0.014038	0.039215	-0.038147	0.067444	-0.01236	-0.053558	-0.062561	0.037689	-0.000458	-0.001984	-0.010376	-0.17258	-0.20538	0.046844	0.014343	-0.63599	-0.10025	0.028381	-0.001221	-0.17761	-0.007172	-0.24429	0.071411	-0.001831	-0.001373
46.868	0.027161	-0.02121	0.052032	-0.000916	0.001678	0.036163	-0.065155	0.019684	0.032043	-0.037231	0.056152	-0.012054	-0.023804	-0.067902	0.024719	-0.004883	0.023041	-0.084991	-0.48538	-0.25452	0.039215	-0.005493	-0.36529	-0.097198	0.080566	0.001068	-0.37186	-0.006714	-0.088806	-0.19913	-0.001373	-0.006256
46.869	0.027161	-0.030212	0.096741	0.012512	-0.044556	0.048065	-0.071259	0.015411	0.029755	-0.05249	0.013428	-0.011139	0.019226	-0.054779	-0.005188	-0.001984	0.019531	-0.13672	-0.68131	-0.077057	0.032959	-0.02655	-0.32486	0.009613	0.25726	-0.004578	0.096436	-0.011902	-0.12909	0.25467	-0.001831	-0.00412
46.87	0.021362	-0.029144	0.060272	0.014191	-0.045013	0.030823	-0.077057	0.021973	0.024719	-0.042419	0.02182	-0.015259	0.007477	-0.047607	-0.009918	-0.013275	0.010071	-0.13199	-0.46555	0.16037	0.042572	-0.056915	-0.2504	0.14938	0.15854	0.007782	-0.11459	-0.00824	-0.12283	0.39825	0.000763	-0.006256
46.871	0.084534	-0.055084	-0.056915	0.018616	-0.04303	0.029297	-0.076141	0.01709	0.017853	-0.033417	0.02655	-0.013123	-0.018921	-0.050507	0.005798	-0.025024	0.01297	-0.12909	0.077667	0.28214	0.025635	-0.059204	-0.11017	0.10422	0.11429	0.009613	-0.42145	-0.002899	-0.043488	0.51361	-0.002136	-0.011597
46.872	0.069885	-0.067596	-0.090485	0.009766	-0.022888	0.012512	-0.048676	0.022736	0.028076	-0.037537	-0.033264	-0.007172	-0.046692	-0.059052	0.023499	-0.001068	0.021362	-0.1207	0.00351	0.2388	0	-0.06546	0.003357	0.057068	0.072784	0.003662	-0.29968	-0.001984	0.040436	0.16907	0.002441	-0.010529
46.873	0.02182	-0.062561	-0.072174	0.005646	0.0177	0.023956	-0.054016	0.019989	0.037842	-0.036469	0.010681	-0.020599	-0.06424	-0.062408	0.030823	0.002747	0.00351	-0.10788	-0.049744	0.11673	0.031281	-0.031433	-0.096741	-0.006714	0.089874	0.005951	-0.015869	-0.001526	0.04776	0.19852	-0.002441	-0.006256
46.874	0.006104	-0.061798	-0.048676	-0.005951	0.015717	0.034943	-0.053253	0.011749	0.039063	-0.045319	0.00824	-0.018768	-0.045013	-0.052185	0.0354	0.001373	0.007019	-0.082397	-0.029449	0.043793	0.035553	0.006866	-0.168	0.011902	0.058746	-0.010223	0.14801	-0.019531	0.066986	-0.018311	-0.00061	-0.007782
46.875	0.028381	-0.079346	-0.13473	-0.001984	0.044098	0.040436	-0.060577	0.020447	0.039978	-0.044098	0.011902	-0.019379	-0.03418	-0.057983	0.019531	0.004578	0.014648	-0.037994	-0.19196	0.015564	0.03479	0.005493	-0.096588	-0.069122	0.043335	-0.020142	0.10315	-0.036926	0.097198	-0.22873	-0.001984	-0.003662
46.876	0.019989	-0.043182	-0.15091	0.013428	0.03479	0.044403	-0.051117	0.00824	0.040283	-0.045319	-0.013428	-0.009613	-0.062866	-0.045166	0.00061	-0.007782	0.013123	-0.077515	-0.40512	-0.090942	0.024872	-0.018158	-0.086365	-0.04715	0.033264	-0.010834	0.016937	-0.049744	0.062866	0.045166	-0.000916	-0.018616
46.877	0.029602	-0.069885	-0.043945	0.006409	-0.022278	0.066376	-0.070496	0.011749	0.041046	-0.036316	-0.024414	-0.015869	-0.057983	-0.058594	-0.018616	-0.010376	0.014038	-0.063477	-0.12711	-0.092163	0.033569	-0.025787	-0.036316	-0.024872	0.050201	-0.014496	-0.010681	-0.003662	0.007019	-0.21454	0.000305	-0.016022
46.878	0.02243	-0.079041	-0.003204	0.017242	0.000305	0.02182	-0.076447	0.016632	0.038452	-0.034637	-0.017853	-0.020905	-0.046844	-0.054626	-0.026703	-0.006409	0.024872	-0.092468	0.053864	-0.11017	-0.001068	-0.028381	0.17364	0.077972	0.081329	-0.02594	-0.011444	0.039215	-0.016785	-0.061035	-0.000305	-0.012817
46.879	0.02121	-0.085602	0.038452	0.011902	-0.058899	-0.025482	-0.09201	0.019684	0.028992	-0.03067	0.016785	-0.024567	-0.049896	-0.06134	0.012207	-0.007477	0.025787	-0.055695	-0.046539	-0.11002	-0.007782	-0.009918	0.29068	0.037842	0.099182	-0.019531	-0.16129	0.024414	0.050659	0.050049	0.001984	-0.018005
46.88	0.021667	-0.090179	0.005493	-0.001068	-0.014954	-0.028534	-0.075684	0.012512	0.033112	-0.040588	0.033569	-0.024261	-0.076752	-0.065765	0.034027	0.002747	0.018768	-0.055847	-0.14847	-0.046692	0.006866	-0.002289	0.33188	0.07843	0.075226	-0.015106	-0.33341	0.00885	0.04715	-0.10727	0.001373	-0.016785
